<mxfile host="app.diagrams.net" modified="2023-12-06T12:33:24.892Z" agent="Mozilla/5.0 (Windows NT 10.0; Win64; x64) AppleWebKit/537.36 (KHTML, like Gecko) Chrome/119.0.0.0 Safari/537.36" etag="jl9i5X_3hR86vHu3K7-F" version="22.1.5" type="device">
  <diagram name="Page-1" id="fESGRogrAO50ZL73vu1A">
    <mxGraphModel dx="794" dy="412" grid="1" gridSize="10" guides="1" tooltips="1" connect="1" arrows="1" fold="1" page="1" pageScale="1" pageWidth="827" pageHeight="1169" math="0" shadow="0">
      <root>
        <mxCell id="0" />
        <mxCell id="1" parent="0" />
        <mxCell id="9Krmu9KY6Wh2gfok7bBE-2" value="AWS Cloud" style="points=[[0,0],[0.25,0],[0.5,0],[0.75,0],[1,0],[1,0.25],[1,0.5],[1,0.75],[1,1],[0.75,1],[0.5,1],[0.25,1],[0,1],[0,0.75],[0,0.5],[0,0.25]];outlineConnect=0;gradientColor=none;html=1;whiteSpace=wrap;fontSize=12;fontStyle=0;container=1;pointerEvents=0;collapsible=0;recursiveResize=0;shape=mxgraph.aws4.group;grIcon=mxgraph.aws4.group_aws_cloud_alt;strokeColor=#232F3E;fillColor=none;verticalAlign=top;align=left;spacingLeft=30;fontColor=#232F3E;dashed=0;" vertex="1" parent="1">
          <mxGeometry x="40" y="1000" width="770" height="630" as="geometry" />
        </mxCell>
        <mxCell id="9Krmu9KY6Wh2gfok7bBE-3" value="us-east-1&lt;br&gt;" style="points=[[0,0],[0.25,0],[0.5,0],[0.75,0],[1,0],[1,0.25],[1,0.5],[1,0.75],[1,1],[0.75,1],[0.5,1],[0.25,1],[0,1],[0,0.75],[0,0.5],[0,0.25]];outlineConnect=0;gradientColor=none;html=1;whiteSpace=wrap;fontSize=12;fontStyle=0;container=1;pointerEvents=0;collapsible=0;recursiveResize=0;shape=mxgraph.aws4.group;grIcon=mxgraph.aws4.group_region;strokeColor=#00A4A6;fillColor=none;verticalAlign=top;align=left;spacingLeft=30;fontColor=#147EBA;dashed=1;" vertex="1" parent="1">
          <mxGeometry x="60" y="1040" width="740" height="580" as="geometry" />
        </mxCell>
        <mxCell id="9Krmu9KY6Wh2gfok7bBE-4" value="VPC" style="points=[[0,0],[0.25,0],[0.5,0],[0.75,0],[1,0],[1,0.25],[1,0.5],[1,0.75],[1,1],[0.75,1],[0.5,1],[0.25,1],[0,1],[0,0.75],[0,0.5],[0,0.25]];outlineConnect=0;gradientColor=none;html=1;whiteSpace=wrap;fontSize=12;fontStyle=0;container=1;pointerEvents=0;collapsible=0;recursiveResize=0;shape=mxgraph.aws4.group;grIcon=mxgraph.aws4.group_vpc2;strokeColor=#8C4FFF;fillColor=none;verticalAlign=top;align=left;spacingLeft=30;fontColor=#AAB7B8;dashed=0;" vertex="1" parent="1">
          <mxGeometry x="75" y="1065" width="710" height="530" as="geometry" />
        </mxCell>
        <mxCell id="9Krmu9KY6Wh2gfok7bBE-5" value="" style="sketch=0;points=[[0,0,0],[0.25,0,0],[0.5,0,0],[0.75,0,0],[1,0,0],[0,1,0],[0.25,1,0],[0.5,1,0],[0.75,1,0],[1,1,0],[0,0.25,0],[0,0.5,0],[0,0.75,0],[1,0.25,0],[1,0.5,0],[1,0.75,0]];outlineConnect=0;fontColor=#232F3E;fillColor=#E7157B;strokeColor=#ffffff;dashed=0;verticalLabelPosition=bottom;verticalAlign=top;align=center;html=1;fontSize=12;fontStyle=0;aspect=fixed;shape=mxgraph.aws4.resourceIcon;resIcon=mxgraph.aws4.api_gateway;" vertex="1" parent="9Krmu9KY6Wh2gfok7bBE-4">
          <mxGeometry x="115" y="25" width="55" height="55" as="geometry" />
        </mxCell>
        <mxCell id="9Krmu9KY6Wh2gfok7bBE-8" value="Availability Zone east-1" style="fillColor=none;strokeColor=#147EBA;dashed=1;verticalAlign=top;fontStyle=0;fontColor=#147EBA;whiteSpace=wrap;html=1;" vertex="1" parent="9Krmu9KY6Wh2gfok7bBE-4">
          <mxGeometry x="30" y="130" width="260" height="380" as="geometry" />
        </mxCell>
        <mxCell id="9Krmu9KY6Wh2gfok7bBE-10" value="Private subnet" style="points=[[0,0],[0.25,0],[0.5,0],[0.75,0],[1,0],[1,0.25],[1,0.5],[1,0.75],[1,1],[0.75,1],[0.5,1],[0.25,1],[0,1],[0,0.75],[0,0.5],[0,0.25]];outlineConnect=0;gradientColor=none;html=1;whiteSpace=wrap;fontSize=12;fontStyle=0;container=1;pointerEvents=0;collapsible=0;recursiveResize=0;shape=mxgraph.aws4.group;grIcon=mxgraph.aws4.group_security_group;grStroke=0;strokeColor=#00A4A6;fillColor=#E6F6F7;verticalAlign=top;align=left;spacingLeft=30;fontColor=#147EBA;dashed=0;" vertex="1" parent="9Krmu9KY6Wh2gfok7bBE-4">
          <mxGeometry x="40" y="150" width="230" height="330" as="geometry" />
        </mxCell>
        <mxCell id="9Krmu9KY6Wh2gfok7bBE-11" value="Private subnet" style="points=[[0,0],[0.25,0],[0.5,0],[0.75,0],[1,0],[1,0.25],[1,0.5],[1,0.75],[1,1],[0.75,1],[0.5,1],[0.25,1],[0,1],[0,0.75],[0,0.5],[0,0.25]];outlineConnect=0;gradientColor=none;html=1;whiteSpace=wrap;fontSize=12;fontStyle=0;container=1;pointerEvents=0;collapsible=0;recursiveResize=0;shape=mxgraph.aws4.group;grIcon=mxgraph.aws4.group_security_group;grStroke=0;strokeColor=#00A4A6;fillColor=#E6F6F7;verticalAlign=top;align=left;spacingLeft=30;fontColor=#147EBA;dashed=0;" vertex="1" parent="9Krmu9KY6Wh2gfok7bBE-4">
          <mxGeometry x="450" y="160" width="240" height="340" as="geometry" />
        </mxCell>
        <mxCell id="9Krmu9KY6Wh2gfok7bBE-9" value="Availability Zone east-2&lt;br&gt;" style="fillColor=none;strokeColor=#147EBA;dashed=1;verticalAlign=top;fontStyle=0;fontColor=#147EBA;whiteSpace=wrap;html=1;" vertex="1" parent="9Krmu9KY6Wh2gfok7bBE-4">
          <mxGeometry x="440" y="130" width="250" height="385" as="geometry" />
        </mxCell>
        <mxCell id="9Krmu9KY6Wh2gfok7bBE-14" value="" style="sketch=0;points=[[0,0,0],[0.25,0,0],[0.5,0,0],[0.75,0,0],[1,0,0],[0,1,0],[0.25,1,0],[0.5,1,0],[0.75,1,0],[1,1,0],[0,0.25,0],[0,0.5,0],[0,0.75,0],[1,0.25,0],[1,0.5,0],[1,0.75,0]];outlineConnect=0;fontColor=#232F3E;fillColor=#ED7100;strokeColor=#ffffff;dashed=0;verticalLabelPosition=bottom;verticalAlign=top;align=center;html=1;fontSize=12;fontStyle=0;aspect=fixed;shape=mxgraph.aws4.resourceIcon;resIcon=mxgraph.aws4.elastic_load_balancing;" vertex="1" parent="9Krmu9KY6Wh2gfok7bBE-4">
          <mxGeometry x="311" y="26" width="49" height="49" as="geometry" />
        </mxCell>
        <mxCell id="9Krmu9KY6Wh2gfok7bBE-22" value="&lt;div style=&quot;&quot;&gt;&lt;span style=&quot;background-color: initial;&quot;&gt;&lt;font color=&quot;#ff5e24&quot;&gt;&lt;br&gt;&lt;/font&gt;&lt;/span&gt;&lt;/div&gt;&lt;div style=&quot;&quot;&gt;ROSA&lt;/div&gt;&lt;div style=&quot;&quot;&gt;&lt;span style=&quot;background-color: initial;&quot;&gt;&lt;font color=&quot;#ff5e24&quot;&gt;&lt;br&gt;&lt;/font&gt;&lt;/span&gt;&lt;/div&gt;&lt;div style=&quot;&quot;&gt;&lt;span style=&quot;background-color: initial;&quot;&gt;&lt;font color=&quot;#ff5e24&quot;&gt;&lt;br&gt;&lt;/font&gt;&lt;/span&gt;&lt;/div&gt;&lt;div style=&quot;&quot;&gt;&lt;span style=&quot;background-color: initial;&quot;&gt;&lt;font color=&quot;#ff5e24&quot;&gt;&lt;br&gt;&lt;/font&gt;&lt;/span&gt;&lt;/div&gt;&lt;div style=&quot;&quot;&gt;&lt;span style=&quot;background-color: initial;&quot;&gt;&lt;font color=&quot;#ff5e24&quot;&gt;&lt;br&gt;&lt;/font&gt;&lt;/span&gt;&lt;/div&gt;&lt;div style=&quot;&quot;&gt;&lt;span style=&quot;background-color: initial;&quot;&gt;&lt;font color=&quot;#ff5e24&quot;&gt;&lt;br&gt;&lt;/font&gt;&lt;/span&gt;&lt;/div&gt;&lt;div style=&quot;&quot;&gt;&lt;span style=&quot;background-color: initial;&quot;&gt;&lt;font color=&quot;#ff5e24&quot;&gt;&lt;br&gt;&lt;/font&gt;&lt;/span&gt;&lt;/div&gt;&lt;div style=&quot;&quot;&gt;&lt;span style=&quot;background-color: initial;&quot;&gt;&lt;font color=&quot;#ff5e24&quot;&gt;&lt;br&gt;&lt;/font&gt;&lt;/span&gt;&lt;/div&gt;&lt;div style=&quot;&quot;&gt;&lt;span style=&quot;background-color: initial;&quot;&gt;&lt;font color=&quot;#ff5e24&quot;&gt;&lt;br&gt;&lt;/font&gt;&lt;/span&gt;&lt;/div&gt;&lt;div style=&quot;&quot;&gt;&lt;span style=&quot;background-color: initial;&quot;&gt;&lt;font color=&quot;#ff5e24&quot;&gt;&lt;br&gt;&lt;/font&gt;&lt;/span&gt;&lt;/div&gt;&lt;div style=&quot;&quot;&gt;&lt;span style=&quot;background-color: initial;&quot;&gt;&lt;font color=&quot;#ff5e24&quot;&gt;&lt;br&gt;&lt;/font&gt;&lt;/span&gt;&lt;/div&gt;&lt;div style=&quot;&quot;&gt;&lt;span style=&quot;background-color: initial;&quot;&gt;&lt;font color=&quot;#ff5e24&quot;&gt;&lt;br&gt;&lt;/font&gt;&lt;/span&gt;&lt;/div&gt;&lt;div style=&quot;&quot;&gt;&lt;span style=&quot;background-color: initial;&quot;&gt;&lt;font color=&quot;#ff5e24&quot;&gt;&lt;br&gt;&lt;/font&gt;&lt;/span&gt;&lt;/div&gt;&lt;div style=&quot;&quot;&gt;&lt;span style=&quot;background-color: initial;&quot;&gt;&lt;font color=&quot;#ff5e24&quot;&gt;&lt;br&gt;&lt;/font&gt;&lt;/span&gt;&lt;/div&gt;&lt;div style=&quot;&quot;&gt;&lt;span style=&quot;background-color: initial;&quot;&gt;&lt;font color=&quot;#ff5e24&quot;&gt;&lt;br&gt;&lt;/font&gt;&lt;/span&gt;&lt;/div&gt;&lt;div style=&quot;&quot;&gt;&lt;span style=&quot;background-color: initial;&quot;&gt;&lt;font face=&quot;Comic Sans MS&quot; size=&quot;1&quot; color=&quot;#ff5e24&quot;&gt;&lt;b style=&quot;font-size: 14px;&quot;&gt;redhat openshift cluster&amp;nbsp;&lt;/b&gt;&lt;/font&gt;&lt;/span&gt;&lt;/div&gt;" style="rounded=0;whiteSpace=wrap;html=1;align=right;" vertex="1" parent="9Krmu9KY6Wh2gfok7bBE-4">
          <mxGeometry x="50" y="200" width="640" height="280" as="geometry" />
        </mxCell>
        <mxCell id="9Krmu9KY6Wh2gfok7bBE-25" value="" style="swimlane;startSize=0;" vertex="1" parent="9Krmu9KY6Wh2gfok7bBE-4">
          <mxGeometry x="75" y="265" width="200" height="200" as="geometry">
            <mxRectangle x="75" y="265" width="50" height="40" as="alternateBounds" />
          </mxGeometry>
        </mxCell>
        <mxCell id="9Krmu9KY6Wh2gfok7bBE-29" value="" style="sketch=0;html=1;dashed=0;whitespace=wrap;fillColor=#2875E2;strokeColor=#ffffff;points=[[0.005,0.63,0],[0.1,0.2,0],[0.9,0.2,0],[0.5,0,0],[0.995,0.63,0],[0.72,0.99,0],[0.5,1,0],[0.28,0.99,0]];verticalLabelPosition=bottom;align=center;verticalAlign=top;shape=mxgraph.kubernetes.icon;prIcon=pod" vertex="1" parent="9Krmu9KY6Wh2gfok7bBE-25">
          <mxGeometry x="70" y="70" width="60" height="50" as="geometry" />
        </mxCell>
        <mxCell id="9Krmu9KY6Wh2gfok7bBE-47" value="POD" style="text;html=1;strokeColor=none;fillColor=none;align=center;verticalAlign=middle;whiteSpace=wrap;rounded=0;" vertex="1" parent="9Krmu9KY6Wh2gfok7bBE-25">
          <mxGeometry x="65" y="120" width="60" height="30" as="geometry" />
        </mxCell>
        <mxCell id="9Krmu9KY6Wh2gfok7bBE-27" value="" style="sketch=0;html=1;dashed=0;whitespace=wrap;fillColor=#2875E2;strokeColor=#ffffff;points=[[0.005,0.63,0],[0.1,0.2,0],[0.9,0.2,0],[0.5,0,0],[0.995,0.63,0],[0.72,0.99,0],[0.5,1,0],[0.28,0.99,0]];verticalLabelPosition=bottom;align=center;verticalAlign=top;shape=mxgraph.kubernetes.icon;prIcon=ns" vertex="1" parent="9Krmu9KY6Wh2gfok7bBE-4">
          <mxGeometry x="70" y="215" width="45" height="35" as="geometry" />
        </mxCell>
        <mxCell id="9Krmu9KY6Wh2gfok7bBE-28" value="upskillondevops-dev" style="text;html=1;strokeColor=none;fillColor=none;align=center;verticalAlign=middle;whiteSpace=wrap;rounded=0;" vertex="1" parent="9Krmu9KY6Wh2gfok7bBE-4">
          <mxGeometry x="105" y="215" width="130" height="30" as="geometry" />
        </mxCell>
        <mxCell id="9Krmu9KY6Wh2gfok7bBE-30" value="" style="sketch=0;html=1;dashed=0;whitespace=wrap;fillColor=#2875E2;strokeColor=#ffffff;points=[[0.005,0.63,0],[0.1,0.2,0],[0.9,0.2,0],[0.5,0,0],[0.995,0.63,0],[0.72,0.99,0],[0.5,1,0],[0.28,0.99,0]];verticalLabelPosition=bottom;align=center;verticalAlign=top;shape=mxgraph.kubernetes.icon;prIcon=ns" vertex="1" parent="9Krmu9KY6Wh2gfok7bBE-4">
          <mxGeometry x="465" y="230" width="45" height="35" as="geometry" />
        </mxCell>
        <mxCell id="9Krmu9KY6Wh2gfok7bBE-31" value="upskillondevops-dev" style="text;html=1;strokeColor=none;fillColor=none;align=center;verticalAlign=middle;whiteSpace=wrap;rounded=0;" vertex="1" parent="9Krmu9KY6Wh2gfok7bBE-4">
          <mxGeometry x="510" y="230" width="130" height="30" as="geometry" />
        </mxCell>
        <mxCell id="9Krmu9KY6Wh2gfok7bBE-32" value="" style="swimlane;startSize=0;" vertex="1" parent="9Krmu9KY6Wh2gfok7bBE-4">
          <mxGeometry x="465" y="260" width="200" height="200" as="geometry">
            <mxRectangle x="75" y="265" width="50" height="40" as="alternateBounds" />
          </mxGeometry>
        </mxCell>
        <mxCell id="9Krmu9KY6Wh2gfok7bBE-33" value="" style="sketch=0;html=1;dashed=0;whitespace=wrap;fillColor=#2875E2;strokeColor=#ffffff;points=[[0.005,0.63,0],[0.1,0.2,0],[0.9,0.2,0],[0.5,0,0],[0.995,0.63,0],[0.72,0.99,0],[0.5,1,0],[0.28,0.99,0]];verticalLabelPosition=bottom;align=center;verticalAlign=top;shape=mxgraph.kubernetes.icon;prIcon=pod" vertex="1" parent="9Krmu9KY6Wh2gfok7bBE-32">
          <mxGeometry x="70" y="70" width="60" height="50" as="geometry" />
        </mxCell>
        <mxCell id="9Krmu9KY6Wh2gfok7bBE-48" value="POD" style="text;html=1;strokeColor=none;fillColor=none;align=center;verticalAlign=middle;whiteSpace=wrap;rounded=0;" vertex="1" parent="9Krmu9KY6Wh2gfok7bBE-32">
          <mxGeometry x="70" y="125" width="60" height="30" as="geometry" />
        </mxCell>
        <mxCell id="9Krmu9KY6Wh2gfok7bBE-35" value="" style="html=1;endArrow=none;elbow=vertical;startArrow=block;startFill=1;strokeColor=#545B64;rounded=0;exitX=0.535;exitY=0.004;exitDx=0;exitDy=0;exitPerimeter=0;" edge="1" parent="9Krmu9KY6Wh2gfok7bBE-4" source="9Krmu9KY6Wh2gfok7bBE-8" target="9Krmu9KY6Wh2gfok7bBE-14">
          <mxGeometry width="100" relative="1" as="geometry">
            <mxPoint x="325" y="125" as="sourcePoint" />
            <mxPoint x="425" y="125" as="targetPoint" />
          </mxGeometry>
        </mxCell>
        <mxCell id="9Krmu9KY6Wh2gfok7bBE-36" value="" style="html=1;endArrow=none;elbow=vertical;startArrow=block;startFill=1;strokeColor=#545B64;rounded=0;exitX=0.5;exitY=0;exitDx=0;exitDy=0;entryX=1;entryY=0.5;entryDx=0;entryDy=0;entryPerimeter=0;" edge="1" parent="9Krmu9KY6Wh2gfok7bBE-4" source="9Krmu9KY6Wh2gfok7bBE-9" target="9Krmu9KY6Wh2gfok7bBE-14">
          <mxGeometry width="100" relative="1" as="geometry">
            <mxPoint x="179" y="142" as="sourcePoint" />
            <mxPoint x="321" y="72" as="targetPoint" />
          </mxGeometry>
        </mxCell>
        <mxCell id="9Krmu9KY6Wh2gfok7bBE-38" value="" style="sketch=0;outlineConnect=0;fontColor=#232F3E;gradientColor=none;fillColor=#ED7100;strokeColor=none;dashed=0;verticalLabelPosition=bottom;verticalAlign=top;align=center;html=1;fontSize=12;fontStyle=0;aspect=fixed;pointerEvents=1;shape=mxgraph.aws4.auto_scaling2;" vertex="1" parent="9Krmu9KY6Wh2gfok7bBE-4">
          <mxGeometry x="325" y="326" width="68" height="68" as="geometry" />
        </mxCell>
        <mxCell id="9Krmu9KY6Wh2gfok7bBE-39" value="" style="edgeStyle=orthogonalEdgeStyle;html=1;endArrow=block;elbow=vertical;startArrow=none;endFill=1;strokeColor=#545B64;rounded=0;entryX=0;entryY=0.5;entryDx=0;entryDy=0;entryPerimeter=0;exitX=1;exitY=0.5;exitDx=0;exitDy=0;exitPerimeter=0;" edge="1" parent="9Krmu9KY6Wh2gfok7bBE-4" source="9Krmu9KY6Wh2gfok7bBE-5" target="9Krmu9KY6Wh2gfok7bBE-14">
          <mxGeometry width="100" relative="1" as="geometry">
            <mxPoint x="205" y="5" as="sourcePoint" />
            <mxPoint x="305" y="5" as="targetPoint" />
          </mxGeometry>
        </mxCell>
        <mxCell id="9Krmu9KY6Wh2gfok7bBE-45" value="Public API" style="text;html=1;strokeColor=none;fillColor=none;align=center;verticalAlign=middle;whiteSpace=wrap;rounded=0;" vertex="1" parent="9Krmu9KY6Wh2gfok7bBE-4">
          <mxGeometry x="112.5" y="74" width="60" height="30" as="geometry" />
        </mxCell>
        <mxCell id="9Krmu9KY6Wh2gfok7bBE-46" value="ROSA ingress NLB" style="text;html=1;strokeColor=none;fillColor=none;align=center;verticalAlign=middle;whiteSpace=wrap;rounded=0;" vertex="1" parent="9Krmu9KY6Wh2gfok7bBE-4">
          <mxGeometry x="300" y="80" width="100" height="30" as="geometry" />
        </mxCell>
        <mxCell id="9Krmu9KY6Wh2gfok7bBE-49" value="Autoscaling" style="text;html=1;strokeColor=none;fillColor=none;align=center;verticalAlign=middle;whiteSpace=wrap;rounded=0;" vertex="1" parent="9Krmu9KY6Wh2gfok7bBE-4">
          <mxGeometry x="329" y="385" width="60" height="30" as="geometry" />
        </mxCell>
        <mxCell id="9Krmu9KY6Wh2gfok7bBE-41" value="" style="edgeStyle=orthogonalEdgeStyle;html=1;endArrow=open;elbow=vertical;startArrow=none;endFill=0;strokeColor=#545B64;rounded=0;exitX=0;exitY=0.75;exitDx=0;exitDy=0;exitPerimeter=0;" edge="1" parent="1" source="9Krmu9KY6Wh2gfok7bBE-5">
          <mxGeometry width="100" relative="1" as="geometry">
            <mxPoint x="280" y="1070" as="sourcePoint" />
            <mxPoint x="400" y="850" as="targetPoint" />
            <Array as="points">
              <mxPoint x="180" y="1131" />
              <mxPoint x="180" y="1020" />
              <mxPoint x="401" y="1020" />
            </Array>
          </mxGeometry>
        </mxCell>
        <mxCell id="9Krmu9KY6Wh2gfok7bBE-42" value="" style="fontColor=#0066CC;verticalAlign=top;verticalLabelPosition=bottom;labelPosition=center;align=center;html=1;outlineConnect=0;fillColor=#CCCCCC;strokeColor=#6881B3;gradientColor=none;gradientDirection=north;strokeWidth=2;shape=mxgraph.networks.monitor;" vertex="1" parent="1">
          <mxGeometry x="300" y="770" width="80" height="65" as="geometry" />
        </mxCell>
        <mxCell id="9Krmu9KY6Wh2gfok7bBE-43" value="&lt;b&gt;&lt;font style=&quot;font-size: 15px;&quot;&gt;upskillondevops.com&lt;/font&gt;&lt;/b&gt;" style="text;html=1;strokeColor=none;fillColor=none;align=center;verticalAlign=middle;whiteSpace=wrap;rounded=0;" vertex="1" parent="1">
          <mxGeometry x="380" y="760" width="160" height="70" as="geometry" />
        </mxCell>
        <mxCell id="9Krmu9KY6Wh2gfok7bBE-44" value="user&lt;br&gt;" style="text;html=1;strokeColor=none;fillColor=none;align=center;verticalAlign=middle;whiteSpace=wrap;rounded=0;" vertex="1" parent="1">
          <mxGeometry x="310" y="780" width="60" height="30" as="geometry" />
        </mxCell>
      </root>
    </mxGraphModel>
  </diagram>
</mxfile>
